<svg width="1200" height="600" xmlns="http://www.w3.org/2000/svg">
    <defs>
        <clipPath id="lclip">
            <rect x="1641" y="409" width="714" height="1104" />
        </clipPath>
        <linearGradient x1="1494.57" y1="635.412" x2="2501.43" y2="1286.59" gradientUnits="userSpaceOnUse"
            spreadMethod="reflect" id="limey">
            <stop offset="0" stop-color="#57EE25" />
            <stop offset="0.016129" stop-color="#56ED24" />
            <stop offset="0.0322581" stop-color="#56ED24" />
            <stop offset="0.0483871" stop-color="#56ED24" />
            <stop offset="0.0645161" stop-color="#56ED24" />
            <stop offset="0.0806452" stop-color="#56ED24" />
            <stop offset="0.0967742" stop-color="#56ED24" />
            <stop offset="0.112903" stop-color="#56EC24" />
            <stop offset="0.129032" stop-color="#56EC24" />
            <stop offset="0.145161" stop-color="#56EC24" />
            <stop offset="0.16129" stop-color="#56EB24" />
            <stop offset="0.177419" stop-color="#55EB24" />
            <stop offset="0.193548" stop-color="#55EB24" />
            <stop offset="0.209677" stop-color="#55EA23" />
            <stop offset="0.225806" stop-color="#55EA23" />
            <stop offset="0.241935" stop-color="#54E923" />
            <stop offset="0.258065" stop-color="#54E923" />
            <stop offset="0.274194" stop-color="#54E823" />
            <stop offset="0.290323" stop-color="#54E723" />
            <stop offset="0.306452" stop-color="#53E722" />
            <stop offset="0.322581" stop-color="#53E622" />
            <stop offset="0.33871" stop-color="#53E522" />
            <stop offset="0.354839" stop-color="#52E422" />
            <stop offset="0.370968" stop-color="#52E421" />
            <stop offset="0.387097" stop-color="#52E321" />
            <stop offset="0.403226" stop-color="#51E221" />
            <stop offset="0.419355" stop-color="#51E121" />
            <stop offset="0.435484" stop-color="#50E020" />
            <stop offset="0.451613" stop-color="#50DF20" />
            <stop offset="0.467742" stop-color="#50DE20" />
            <stop offset="0.483871" stop-color="#4FDD1F" />
            <stop offset="0.5" stop-color="#4FDC1F" />
            <stop offset="0.516129" stop-color="#4EDB1F" />
            <stop offset="0.532258" stop-color="#4EDA1E" />
            <stop offset="0.548387" stop-color="#4DD91E" />
            <stop offset="0.564516" stop-color="#4DD81E" />
            <stop offset="0.580645" stop-color="#4CD71D" />
            <stop offset="0.596774" stop-color="#4BD61D" />
            <stop offset="0.612903" stop-color="#4BD41D" />
            <stop offset="0.629032" stop-color="#4AD31C" />
            <stop offset="0.645161" stop-color="#4AD21C" />
            <stop offset="0.66129" stop-color="#49D01B" />
            <stop offset="0.677419" stop-color="#49CF1B" />
            <stop offset="0.693548" stop-color="#48CE1A" />
            <stop offset="0.709677" stop-color="#47CC1A" />
            <stop offset="0.725806" stop-color="#47CB1A" />
            <stop offset="0.741935" stop-color="#46CA19" />
            <stop offset="0.758065" stop-color="#45C819" />
            <stop offset="0.774194" stop-color="#45C718" />
            <stop offset="0.790323" stop-color="#44C518" />
            <stop offset="0.806452" stop-color="#43C317" />
            <stop offset="0.822581" stop-color="#42C217" />
            <stop offset="0.83871" stop-color="#42C016" />
            <stop offset="0.854839" stop-color="#41BF16" />
            <stop offset="0.870968" stop-color="#40BD15" />
            <stop offset="0.887097" stop-color="#3FBB15" />
            <stop offset="0.903226" stop-color="#3FB914" />
            <stop offset="0.919355" stop-color="#3EB813" />
            <stop offset="0.935484" stop-color="#3DB613" />
            <stop offset="0.951613" stop-color="#3CB412" />
            <stop offset="0.967742" stop-color="#3BB212" />
            <stop offset="0.983871" stop-color="#3AB011" />
            <stop offset="1" stop-color="#3AAF11" />
        </linearGradient>
    </defs>
    <style>
        #limeylogo {
            animation: scale 2s cubic-bezier(0.22, 1, 0.36, 1);
            animation-fill-mode: forwards;
            transform-origin: center;
            background: red;
            transform-box: content-box;
        }

        /* for debugging: */
        /* svg {
            background: rgba(0, 0, 0, 0.15);
            outline: 3px dashed white;
        } */

        #spin {
            transform-box: fill-box;
            transform-origin: center;
            animation: spin 5s linear infinite, length 5s cubic-bezier(0.22, 1, 0.36, 1);
            animation-fill-mode: forwards;
            /* transform-origin: 50% 50%; */
        }

        #up {
            fill: white;

            animation: movetext 2s ease;
            animation-fill-mode: forwards;
        }

        #upbg {
            fill: rgba(0, 0, 0, 0.25);
            animation: move 2s ease;
            animation-fill-mode: forwards;
            x: -10;
            y: -43;
            z-index: -1;
        }

        @keyframes movetext {
            from {
                transform: translate(30%, 125%) scale(3);
            }

            to {
                transform: translate(30%, 84%) scale(3);
            }
        }

        @keyframes move {
            from {
                transform: translate(25%, 125%);
            }

            to {
                transform: translate(25%, calc(100% - 75px));
            }
        }

        @keyframes length {
            from {
                stroke-dashoffset: 992.743;
                opacity: 0;
            }

            to {
                stroke-dashoffset: 744.557;
                opacity: 1;
            }
        }

        @keyframes spin {
            from {
                transform: rotate(0deg);
            }

            to {
                transform: rotate(360deg);
            }
        }

        @keyframes scale {
            from {
                /* transform: matrix(0.16919509,0,0,0.16919509,261.94821,137.40352) scale(0) translate(-500%, -500%); */
                transform: scale(0.05);
                opacity: 0;
            }

            to {
                transform: matrix(0.16919509, 0, 0, 0.16919509, 261.94821, 137.40352) scale(1) translate(-250%, -250%);
                opacity: 1;
            }
        }

        .flyaround1 {
            animation: flyaround1 100s ease-out infinite;
        }

        .flyaround2 {
            animation: flyaround2 100s ease-out infinite;
        }

        .flyaround3 {
            animation: flyaround3 100s ease-out infinite;
        }

        .flyaround4 {
            animation: flyaround4 100s ease-out infinite;
        }

        .flyaround5 {
            animation: flyaround5 100s ease-out infinite;
        }

        @keyframes flyaround1 {
            0% {
                transform: translate(200%, 200%) rotate(90deg);
                opacity: 0;
            }

            10% {
                opacity: 1;
            }

            20% {
                transform: translate(0%) rotate(-45deg);
                opacity: 0;
            }

            100% {
                opacity: 0;
            }
        }

        @keyframes flyaround2 {

            0%,
            20% {
                transform: translate(0%, 100%) rotate(-10deg);
                opacity: 0;
            }

            30% {
                opacity: 1;
            }

            40% {
                transform: translate(100%, 0%) rotate(10deg);
                opacity: 0;
            }

            100% {
                opacity: 0;
            }
        }

        @keyframes flyaround3 {

            0%,
            40% {
                transform: translate(0%, 0%) rotate(10deg);
                opacity: 0;
            }

            50% {
                opacity: 1;
            }

            60% {
                transform: translate(100%, 100%) rotate(-10deg);
                opacity: 0;
            }

            100% {
                opacity: 0;
            }
        }

        @keyframes flyaround4 {

            0%,
            60% {
                transform: translate(100%, 0%) rotate(10deg);
                opacity: 0;
            }

            70% {
                opacity: 1;
            }

            80% {
                transform: translate(0%, 100%) rotate(-10deg);
                opacity: 0;
            }

            100% {
                opacity: 0;
            }
        }

        @keyframes flyaround5 {

            0%,
            80% {
                transform: translate(0%, 0%) rotate(10deg);
                opacity: 0;
            }

            90% {
                opacity: 1;
            }

            100% {
                transform: translate(100%, 100%) rotate(-10deg);
                opacity: 0;
            }
        }
    </style>
    <!--#region logos-->

    <!-- rust   -->
    <g class="flyaround1"><svg width="60" height="60" viewBox="19 19 106 106" xmlns:xlink="http://www.w3.org/1999/xlink"
            xmlns="http://www.w3.org/2000/svg">
            <defs>
                <linearGradient id="prefix__a">
                    <stop offset="0" stop-color="#884d22" />
                    <stop offset="1" stop-color="#a65e2a" />
                </linearGradient>
                <linearGradient xlink:href="#prefix__a" id="prefix__b" x1="1.394" y1="7.465" x2="153.291" y2="141.149"
                    gradientUnits="userSpaceOnUse" />
            </defs>
            <path
                d="M124 70.7l-4.39-2.72a59.613 59.613 0 00-.125-1.28l3.78-3.52c.384-.358.556-.888.452-1.4a1.5 1.5 0 00-.953-1.12l-4.83-1.8a63.844 63.844 0 00-.378-1.25l3.01-4.18c.307-.425.37-.978.17-1.46a1.516 1.516 0 00-1.15-.914l-5.09-.828a38.524 38.524 0 00-.612-1.14l2.14-4.7a1.51 1.51 0 00-1.428-2.141l-5.17.18a40.822 40.822 0 00-.816-.99l1.19-5.03a1.515 1.515 0 00-1.823-1.823l-5.03 1.19a43.417 43.417 0 00-.992-.816l.181-5.17a1.515 1.515 0 00-2.141-1.429l-4.69 2.14a62.934 62.934 0 00-1.14-.613l-.83-5.09a1.5 1.5 0 00-.914-1.15 1.505 1.505 0 00-1.46.17l-4.18 3.01a50.417 50.417 0 00-1.24-.377l-1.8-4.83a1.51 1.51 0 00-2.52-.503l-3.52 3.78c-.425-.047-.853-.09-1.28-.125l-2.72-4.4a1.513 1.513 0 00-2.57 0l-2.72 4.4a44.71 44.71 0 00-1.28.125l-3.52-3.78a1.517 1.517 0 00-1.4-.452 1.505 1.505 0 00-1.12.955l-1.8 4.83c-.418.12-.832.247-1.24.377l-4.18-3.01a1.502 1.502 0 00-1.46-.17c-.483.2-.83.638-.914 1.15l-.83 5.09c-.384.199-.764.404-1.14.613l-4.69-2.14a1.514 1.514 0 00-2.141 1.429l.18 5.17c-.334.267-.665.54-.992.816l-5.03-1.19a1.514 1.514 0 00-1.823 1.823l1.18 5.03a48.63 48.63 0 00-.814.99l-5.17-.18a1.514 1.514 0 00-1.429 2.141l2.14 4.7c-.208.377-.414.757-.613 1.14l-5.09.828a1.51 1.51 0 00-.98 2.374l3.01 4.18c-.131.413-.258.828-.378 1.25l-4.83 1.8a1.51 1.51 0 00-.501 2.52l3.78 3.52c-.047.425-.089.853-.125 1.28l-4.39 2.72c-.445.275-.716.761-.716 1.29s.271 1.01.716 1.28l4.39 2.72c.036.428.078.855.125 1.28l-3.78 3.52a1.512 1.512 0 00.501 2.52l4.83 1.8c.12.418.247.833.378 1.25l-3.01 4.18a1.508 1.508 0 00.99 2.374l5.09.828c.199.386.403.766.613 1.14l-2.14 4.69a1.514 1.514 0 001.429 2.141l5.16-.181c.269.336.54.665.816.992l-1.18 5.03c-.12.51.031 1.04.403 1.41a1.51 1.51 0 001.42.402l5.03-1.18c.327.278.658.548.992.814l-.18 5.17a1.514 1.514 0 002.141 1.427l4.69-2.14c.378.21.758.414 1.14.613l.83 5.09c.084.518.43.956.914 1.16.483.201 1.04.136 1.46-.169l4.18-3.01c.413.131.828.259 1.25.379l1.8 4.83c.183.49.607.853 1.12.953a1.506 1.506 0 001.4-.452l3.52-3.78c.425.049.853.09 1.28.128l2.72 4.39c.274.443.761.716 1.28.716s1.01-.272 1.29-.716l2.72-4.39a49.06 49.06 0 001.28-.128l3.52 3.78c.357.384.887.556 1.4.452a1.502 1.502 0 001.12-.953l1.8-4.83c.418-.12.833-.248 1.25-.379l4.18 3.01a1.51 1.51 0 002.374-.991l.83-5.09c.384-.199.764-.406 1.14-.613l4.69 2.14a1.51 1.51 0 002.141-1.427l-.18-5.17c.334-.267.665-.536.991-.814l5.03 1.18a1.512 1.512 0 001.823-1.812l-1.18-5.03c.276-.327.548-.656.814-.992l5.17.181a1.504 1.504 0 001.31-.671 1.51 1.51 0 00.118-1.47l-2.14-4.69c.209-.379.414-.759.612-1.14l5.09-.828a1.493 1.493 0 001.15-.914c.2-.483.137-1.04-.17-1.46l-3.01-4.18c.13-.413.257-.828.378-1.25l4.83-1.8c.491-.184.853-.607.953-1.12a1.506 1.506 0 00-.452-1.4l-3.78-3.52c.046-.425.088-.853.125-1.28l4.39-2.72c.445-.274.716-.761.716-1.28s-.27-1.01-.715-1.29zm-29.4 36.5a3.112 3.112 0 01-2.38-3.7 3.107 3.107 0 013.69-2.39c1.68.359 2.75 2.02 2.39 3.7s-2.01 2.75-3.69 2.39zm-1.49-10.1a2.824 2.824 0 00-3.36 2.18l-1.56 7.28a38.32 38.32 0 01-15.8 3.4c-5.76 0-11.2-1.27-16.1-3.55l-1.56-7.28a2.83 2.83 0 00-3.36-2.18l-6.43 1.38a38.85 38.85 0 01-3.32-3.92h31.3c.354 0 .59-.064.59-.386v-11.1c0-.322-.236-.386-.59-.386h-9.15v-7.01h9.89c.903 0 4.83.258 6.08 5.28.393 1.54 1.26 6.56 1.85 8.17.588 1.8 2.98 5.4 5.53 5.4h15.6c.177 0 .366-.02.565-.056a39.07 39.07 0 01-3.54 4.16l-6.58-1.41zm-43.3 9.95a3.104 3.104 0 01-3.69-2.39 3.109 3.109 0 116.08-1.31 3.117 3.117 0 01-2.39 3.7zm-11.9-48.1a3.12 3.12 0 01-1.58 4.11c-1.57.697-3.4-.012-4.1-1.58s.012-3.41 1.58-4.11c1.57-.696 3.4.012 4.1 1.58zm-3.65 8.64l6.7-2.98a2.83 2.83 0 001.44-3.74l-1.38-3.12h5.42v24.4h-10.9a38.354 38.354 0 01-1.46-10.5c0-1.39.075-2.76.219-4.11zm29.4-2.37v-7.2h12.9c.667 0 4.71.771 4.71 3.79 0 2.51-3.1 3.41-5.65 3.41h-12zm46.9 6.48c0 .956-.035 1.9-.105 2.84h-3.93c-.393 0-.551.258-.551.643v1.8c0 4.24-2.39 5.17-4.49 5.4-2 .225-4.21-.836-4.48-2.06-1.18-6.63-3.14-8.04-6.24-10.5 3.85-2.44 7.85-6.05 7.85-10.9 0-5.21-3.57-8.49-6-10.1-3.42-2.25-7.2-2.7-8.22-2.7h-40.6c5.51-6.14 13-10.5 21.4-12.1l4.79 5.02a2.833 2.833 0 004.01.092l5.36-5.12c11.2 2.09 20.7 9.07 26.2 18.7l-3.67 8.28a2.837 2.837 0 001.44 3.74l7.06 3.14c.122 1.25.186 2.52.186 3.8zm-40.6-41.9a3.1 3.1 0 014.39.101 3.119 3.119 0 01-.103 4.4 3.098 3.098 0 01-4.39-.102 3.119 3.119 0 01.103-4.4zm36.4 29.3a3.101 3.101 0 014.1-1.58 3.113 3.113 0 011.58 4.11 3.101 3.101 0 01-4.1 1.58 3.113 3.113 0 01-1.58-4.11z"
                fill="url(#prefix__b)" />
        </svg></g>
    <!-- vscode -->
    <g class="flyaround2"><svg width="60" height="60" viewBox="0 0 100 100" fill="none"
            xmlns="http://www.w3.org/2000/svg">
            <mask id="prefix__a" maskUnits="userSpaceOnUse" x="0" y="0" width="100" height="100">
                <path fill-rule="evenodd" clip-rule="evenodd"
                    d="M70.912 99.317a6.223 6.223 0 004.96-.19l20.589-9.907A6.25 6.25 0 00100 83.587V16.413a6.25 6.25 0 00-3.54-5.632L75.874.874a6.226 6.226 0 00-7.104 1.21L29.355 38.04 12.187 25.01a4.162 4.162 0 00-5.318.236l-5.506 5.009a4.168 4.168 0 00-.004 6.162L16.247 50 1.36 63.583a4.168 4.168 0 00.004 6.162l5.506 5.01a4.162 4.162 0 005.318.236l17.168-13.032L68.77 97.917a6.217 6.217 0 002.143 1.4zM75.015 27.3L45.11 50l29.906 22.701V27.3z"
                    fill="#fff" />
            </mask>
            <g mask="url(#prefix__a)">
                <path
                    d="M96.461 10.796L75.857.876a6.23 6.23 0 00-7.107 1.207l-67.451 61.5a4.167 4.167 0 00.004 6.162l5.51 5.009a4.167 4.167 0 005.32.236l81.228-61.62c2.725-2.067 6.639-.124 6.639 3.297v-.24a6.25 6.25 0 00-3.539-5.63z"
                    fill="#0065A9" />
                <g filter="url(#prefix__filter0_d)">
                    <path
                        d="M96.461 89.204l-20.604 9.92a6.229 6.229 0 01-7.107-1.207l-67.451-61.5a4.167 4.167 0 01.004-6.162l5.51-5.009a4.167 4.167 0 015.32-.236l81.228 61.62c2.725 2.067 6.639.124 6.639-3.297v.24a6.25 6.25 0 01-3.539 5.63z"
                        fill="#007ACC" />
                </g>
                <g filter="url(#prefix__filter1_d)">
                    <path
                        d="M75.858 99.126a6.232 6.232 0 01-7.108-1.21c2.306 2.307 6.25.674 6.25-2.588V4.672c0-3.262-3.944-4.895-6.25-2.589a6.232 6.232 0 017.108-1.21l20.6 9.908A6.25 6.25 0 01100 16.413v67.174a6.25 6.25 0 01-3.541 5.633l-20.601 9.906z"
                        fill="#1F9CF0" />
                </g>
                <path fill-rule="evenodd" clip-rule="evenodd"
                    d="M70.851 99.317a6.224 6.224 0 004.96-.19L96.4 89.22a6.25 6.25 0 003.54-5.633V16.413a6.25 6.25 0 00-3.54-5.632L75.812.874a6.226 6.226 0 00-7.104 1.21L29.294 38.04 12.126 25.01a4.162 4.162 0 00-5.317.236l-5.507 5.009a4.168 4.168 0 00-.004 6.162L16.186 50 1.298 63.583a4.168 4.168 0 00.004 6.162l5.507 5.009a4.162 4.162 0 005.317.236L29.294 61.96l39.414 35.958a6.218 6.218 0 002.143 1.4zM74.954 27.3L45.048 50l29.906 22.701V27.3z"
                    fill="url(#prefix__paint0_linear)" opacity=".25" />
            </g>
            <defs>
                <filter id="prefix__filter0_d" x="-8.394" y="15.829" width="116.727" height="92.246"
                    filterUnits="userSpaceOnUse" color-interpolation-filters="sRGB">
                    <feFlood flood-opacity="0" result="BackgroundImageFix" />
                    <feColorMatrix in="SourceAlpha" values="0 0 0 0 0 0 0 0 0 0 0 0 0 0 0 0 0 0 127 0" />
                    <feOffset />
                    <feGaussianBlur stdDeviation="4.167" />
                    <feColorMatrix values="0 0 0 0 0 0 0 0 0 0 0 0 0 0 0 0 0 0 0.25 0" />
                    <feBlend mode="overlay" in2="BackgroundImageFix" result="effect1_dropShadow" />
                    <feBlend in="SourceGraphic" in2="effect1_dropShadow" result="shape" />
                </filter>
                <filter id="prefix__filter1_d" x="60.417" y="-8.076" width="47.917" height="116.151"
                    filterUnits="userSpaceOnUse" color-interpolation-filters="sRGB">
                    <feFlood flood-opacity="0" result="BackgroundImageFix" />
                    <feColorMatrix in="SourceAlpha" values="0 0 0 0 0 0 0 0 0 0 0 0 0 0 0 0 0 0 127 0" />
                    <feOffset />
                    <feGaussianBlur stdDeviation="4.167" />
                    <feColorMatrix values="0 0 0 0 0 0 0 0 0 0 0 0 0 0 0 0 0 0 0.25 0" />
                    <feBlend mode="overlay" in2="BackgroundImageFix" result="effect1_dropShadow" />
                    <feBlend in="SourceGraphic" in2="effect1_dropShadow" result="shape" />
                </filter>
                <linearGradient id="prefix__paint0_linear" x1="49.939" y1=".258" x2="49.939" y2="99.742"
                    gradientUnits="userSpaceOnUse">
                    <stop stop-color="#fff" />
                    <stop offset="1" stop-color="#fff" stop-opacity="0" />
                </linearGradient>
            </defs>
        </svg></g>
    <!-- html   -->
    <g class="flyaround3"><svg width="60" height="60" viewBox="0 0 512 512" xmlns="http://www.w3.org/2000/svg">
            <path fill="#e44d26" d="M107.6 420.7l-33-370.4h362.8l-33 370.2-148.7 41.2" />
            <path fill="#f16529" d="M256 430.75V81.25h148.3l-28.3 316" />
            <path fill="#ebebeb"
                d="M142 127.35h114v45.4h-64.2l4.2 46.5h60v45.3H154.4m2 22.8H202l3.2 36.3 50.8 13.6v47.4l-93.2-26" />
            <path fill="#fff"
                d="M369.6 127.45H255.8v45.4h109.6m-4.1 46.5H255.8v45.4h56l-5.3 59-50.7 13.6v47.2l93-25.8" />
        </svg></g>
    <!-- csharp -->
    <g class="flyaround4"><svg width="60" height="60" xmlns="http://www.w3.org/2000/svg" viewBox="0 0 64 64">
            <defs>
                <style>
                    .prefix__cls-3 {
                        fill: #fff
                    }
                </style>
            </defs>
            <circle cx="32" cy="32" r="32" fill="#05930c" />
            <path d="M9.82 9A32 32 0 1055 54.18z" opacity=".1" fill="#fff" />
            <path class="prefix__cls-3"
                d="M30.43 43.55a14.78 14.78 0 01-7 1.48 11.23 11.23 0 01-8.61-3.46 12.78 12.78 0 01-3.23-9.09 13.39 13.39 0 013.64-9.77A12.35 12.35 0 0124.49 19a14.8 14.8 0 015.94 1v3.15a12 12 0 00-6-1.51 9.17 9.17 0 00-7 2.9 10.93 10.93 0 00-2.7 7.75 10.4 10.4 0 002.52 7.34 8.58 8.58 0 006.62 2.73 12.42 12.42 0 006.57-1.69zM52.76 26.46l-.4 1.86h-4.6l-1.1 5.28h4.94l-.47 1.86h-4.84l-1.55 7h-2.21l1.51-7h-4.4l-1.48 7H36l1.48-7h-4.64l.35-1.86h4.66l1.07-5.27h-4.87l.37-1.86h4.87l1.48-7.07H43l-1.48 7.07h4.43l1.51-7.07h2.16l-1.48 7.07zm-7.17 1.86h-4.44L40 33.6h4.46z" />
        </svg></g>
    <!-- bash   -->
    <g class="flyaround5"><svg width="60" height="60" viewBox="0 0 79.37 90.71" xmlns="http://www.w3.org/2000/svg">
            <g fill="none" fill-rule="evenodd">
                <path
                    d="M73.846 18.52L45.209 1.523a10.789 10.789 0 00-11.049 0L5.523 18.52C2.106 20.55 0 24.299 0 28.357v33.998c0 4.057 2.106 7.808 5.524 9.837l28.637 16.996a10.798 10.798 0 0011.047 0l28.637-16.996c3.418-2.03 5.525-5.78 5.525-9.837V28.357c0-4.058-2.107-7.807-5.524-9.836z"
                    fill="#fefefe" />
                <path
                    d="M35.162 87.448L6.525 70.452c-2.801-1.663-4.541-4.765-4.541-8.097V28.358c0-3.332 1.74-6.434 4.54-8.096l28.638-17a8.868 8.868 0 014.523-1.245c1.585 0 3.149.43 4.523 1.246l28.637 16.999c2.36 1.4 3.952 3.827 4.4 6.548-.95-2.027-3.092-2.578-5.588-1.12L44.565 42.424c-3.378 1.975-5.869 4.19-5.871 8.264V84.07c-.002 2.439.983 4.019 2.496 4.477a8.82 8.82 0 01-1.505.146 8.868 8.868 0 01-4.523-1.246M73.846 18.52L45.209 1.523A10.806 10.806 0 0039.685 0c-1.908 0-3.816.507-5.525 1.522L5.523 18.52C2.106 20.55 0 24.3 0 28.358v33.997c0 4.057 2.106 7.808 5.524 9.837l28.637 16.997a10.814 10.814 0 005.524 1.52c1.908 0 3.814-.506 5.523-1.52l28.638-16.997c3.418-2.03 5.524-5.78 5.524-9.837V28.358c0-4.058-2.106-7.808-5.524-9.837"
                    fill="#3e474a" />
                <path
                    d="M66.34 65.642l-7.132 4.268c-.189.11-.328.234-.329.46v1.867c0 .228.153.323.342.212l7.241-4.401c.19-.11.218-.321.22-.548v-1.646c0-.227-.154-.322-.343-.212"
                    fill="#47b353" />
                <path
                    d="M51.154 49.935c.231-.117.421.027.424.329l.024 2.467c1.033-.411 1.93-.521 2.743-.333.176.047.254.287.182.572l-.543 2.186a.936.936 0 01-.247.436.58.58 0 01-.143.106.324.324 0 01-.214.035c-.37-.084-1.253-.277-2.64.426-1.457.737-1.966 2.002-1.956 2.941.012 1.121.587 1.461 2.573 1.495 2.646.044 3.79 1.2 3.817 3.865.027 2.617-1.37 5.427-3.507 7.149l.047 2.442c.003.294-.188.63-.419.748l-1.446.833c-.232.117-.422-.027-.425-.321l-.025-2.402c-1.239.515-2.494.639-3.296.317-.15-.06-.216-.282-.156-.536l.524-2.208a.916.916 0 01.26-.46.546.546 0 01.135-.098.288.288 0 01.233-.025c.864.29 1.97.155 3.032-.383 1.35-.683 2.253-2.06 2.24-3.428-.014-1.241-.686-1.757-2.32-1.77-2.08.007-4.019-.403-4.05-3.465-.027-2.521 1.284-5.144 3.36-6.803l-.027-2.465c-.003-.303.182-.636.42-.756z"
                    fill="#fefefe" />
            </g>
        </svg></g>
    <!--#endregion-->
    <g clip-path="url(#clip0)" id="limeylogo" transform="matrix(0.16919509,0,0,0.16919509,261.94821,137.40352)">
        <path d="m 1641,409 h 333.1 v 843.78 H 2355 V 1513 h -714 z" fill="url(#fill1)" fill-rule="evenodd"
            style="fill:url(#limey)" />
    </g>
    <circle id="spin" cx="590.266" cy="294.123" r="158" fill="none" stroke="url(#limey)" stroke-width="30"
        stroke-linecap="round" stroke-dasharray="992.743 992.743" />
    <rect width="560" height="60" id="upbg" rx="10" />
    <path id="up" style="font-size:3.175px;fill:#ffffff;stroke-width:0.666531"
        d="m 132.5903,9e-6 c -0.36191,0 -0.66393,0.122358 -0.90606,0.367112 -0.24216,0.242144 -0.36321,0.572806 -0.36321,0.991986 v 0.64831 h -0.68346 v 0.54676 h 0.68346 v 3.452427 h 0.63658 V 2.554177 h 0.93731 v -0.54676 h -0.93731 V 1.390354 c 0,-0.564993 0.22391,-0.847488 0.67174,-0.847488 0.15883,0 0.30072,0.03512 0.42569,0.105453 V 0.07031 C 132.9405,0.02345 132.78558,0 132.5903,0 Z M 11.888215,0.085939 V 6.006614 H 12.52871 V 0.085939 Z m 100.128135,0 v 5.920675 h 0.64049 V 5.428605 h 0.0156 c 0.27077,0.447828 0.67043,0.671735 1.19897,0.671735 0.56499,0 1.01021,-0.200477 1.33568,-0.601438 0.32544,-0.403565 0.48817,-0.939916 0.48817,-1.609047 0,-0.601445 -0.1458,-1.080514 -0.43742,-1.437209 -0.28899,-0.359299 -0.68995,-0.538956 -1.20287,-0.538956 -0.60664,0 -1.06749,0.265573 -1.38253,0.796718 h -0.0156 V 0.085939 Z m 23.50304,0 v 5.920675 h 0.64049 V 0.085939 Z m -86.3692,0.07419 c -0.114571,0 -0.212189,0.04033 -0.292908,0.121072 -0.08072,0.0781 -0.121072,0.177047 -0.121072,0.296815 0,0.11976 0.04036,0.218714 0.121072,0.296811 0.08072,0.07812 0.178356,0.117166 0.292908,0.117166 0.117167,0 0.216095,-0.04033 0.296815,-0.121071 0.08331,-0.08072 0.124976,-0.178358 0.124976,-0.292906 0,-0.119762 -0.04167,-0.218716 -0.124976,-0.296815 -0.08071,-0.08071 -0.179643,-0.121072 -0.296815,-0.121072 z m 48.341754,0 c -0.11455,0 -0.2122,0.04033 -0.29291,0.121072 -0.0807,0.0781 -0.12106,0.177047 -0.12106,0.296815 0,0.11976 0.0403,0.218714 0.12106,0.296811 0.0808,0.07812 0.17836,0.117166 0.29291,0.117166 0.11717,0 0.21609,-0.04033 0.29681,-0.121071 0.0833,-0.08072 0.12498,-0.178358 0.12498,-0.292906 0,-0.119762 -0.0417,-0.218716 -0.12498,-0.296815 -0.0807,-0.08071 -0.17963,-0.121072 -0.29681,-0.121072 z m 36.418406,0 c -0.11458,0 -0.21219,0.04033 -0.29292,0.121072 -0.0807,0.0781 -0.12108,0.177047 -0.12108,0.296815 0,0.11976 0.0403,0.218714 0.12108,0.296811 0.0808,0.07812 0.17836,0.117166 0.29292,0.117166 0.11716,0 0.21609,-0.04033 0.29681,-0.121071 0.0833,-0.08072 0.12497,-0.178358 0.12497,-0.292906 0,-0.119762 -0.0417,-0.218716 -0.12497,-0.296815 -0.0807,-0.08071 -0.17964,-0.121072 -0.29681,-0.121072 z m -39.609156,0.15231 c -0.84098,0 -1.53615,0.27859 -2.085515,0.835771 -0.546763,0.554574 -0.820148,1.265363 -0.820148,2.13238 0,0.84878 0.246049,1.530938 0.738123,2.046459 0.4947,0.515516 1.1417,0.773275 1.94101,0.773275 0.68736,0 1.31224,-0.158833 1.87462,-0.476462 V 3.085317 h -1.88242 v 0.593625 h 1.22632 v 1.569995 c -0.32025,0.174453 -0.69908,0.261669 -1.13649,0.261669 -0.63789,0 -1.14301,-0.201786 -1.51533,-0.605346 -0.372314,-0.40617 -0.558478,-0.963352 -0.558478,-1.671539 0,-0.687362 0.200487,-1.247143 0.601448,-1.679349 0.40096,-0.432204 0.91518,-0.6483 1.54265,-0.6483 0.61967,0 1.15602,0.14319 1.60904,0.429599 V 0.60926 C 95.422054,0.411379 94.910444,0.312446 94.301194,0.312446 Z M 0,0.406179 1.6402946,6.006603 h 0.7615641 l 1.159921,-4.100722 c 0.05208,-0.182262 0.08593,-0.369719 0.101548,-0.562393 h 0.01562 c 0.01033,0.205691 0.04036,0.39576 0.08984,0.570198 l 1.152111,4.092925 h 0.769374 l 1.581709,-5.600424 h -0.710798 l -1.1443,4.311617 c -0.05988,0.223903 -0.09502,0.403566 -0.105452,0.538957 h -0.01562 c -0.0209,-0.200477 -0.05206,-0.374923 -0.09374,-0.523332 L 4.0148087,0.406187 h -0.628777 l -1.2380311,4.296 C 2.080313,4.939113 2.0399537,5.12658 2.0269305,5.26457 H 2.0072772 C 1.9941806,5.069284 1.9630157,4.881835 1.9135388,4.702184 l -1.1911606,-4.296 z m 45.143192,0 v 5.600424 h 2.905662 V 5.412967 H 45.799309 V 0.406176 Z m 20.070148,0 v 0.593626 h 1.612955 v 5.006798 h 0.656116 V 0.999805 h 1.616862 V 0.406179 Z m 19.027384,0 v 1.745737 h 0.566291 V 0.406179 Z m 17.656576,0 v 5.600424 h 0.65612 v -2.55417 h 2.89785 v 2.55417 h 0.65612 V 0.406179 h -0.65612 v 2.456527 h -2.89785 V 0.406179 Z m 39.88645,0 0.0702,4.022618 h 0.52723 l 0.0742,-4.022618 z M 36.316857,0.82406 35.676362,1.03106 V 2.007424 H 34.989 v 0.546762 h 0.687362 v 2.366706 c 0,0.781095 0.350188,1.171635 1.050566,1.171635 0.247358,0 0.446526,-0.04168 0.597536,-0.124977 V 5.42079 c -0.117167,0.08852 -0.256457,0.132785 -0.417882,0.132785 -0.210907,0 -0.361908,-0.05726 -0.453035,-0.171833 -0.09112,-0.114572 -0.13669,-0.305931 -0.13669,-0.574104 v -2.25345 h 1.007607 V 2.007426 h -1.007607 z m 63.631627,0 -0.64049,0.207 v 0.976364 h -0.68737 v 0.546762 h 0.68737 v 2.366706 c 0,0.781095 0.35018,1.171635 1.050566,1.171635 0.24733,0 0.44652,-0.04168 0.59752,-0.124977 V 5.42079 c -0.11717,0.08852 -0.25646,0.132785 -0.41787,0.132785 -0.21092,0 -0.36192,-0.05726 -0.45304,-0.171833 C 99.99397,5.26717 99.948484,5.075811 99.948484,4.807638 v -2.25345 h 1.007596 V 2.007426 H 99.948484 Z M 9.2754637,1.913678 c -0.52333,0 -0.962045,0.196571 -1.31614,0.589729 -0.351491,0.390548 -0.527236,0.89695 -0.527236,1.519223 0,0.658721 0.161429,1.170338 0.484276,1.534843 0.322852,0.361907 0.766772,0.542856 1.331761,0.542856 0.57801,0 1.0427573,-0.127571 1.3942493,-0.382736 V 5.116154 C 10.264847,5.412968 9.8508677,5.561377 9.4004407,5.561377 8.9994777,5.561377 8.6844377,5.440306 8.4553177,5.19817 8.2261997,4.956027 8.1064307,4.612348 8.0960167,4.167125 H 10.919664 V 3.831261 c 0,-0.601446 -0.14319,-1.071402 -0.429602,-1.409874 C 10.203661,2.082916 9.7987957,1.913676 9.2754637,1.913678 Z m 6.3541813,0 c -0.630081,0 -1.133886,0.200476 -1.511411,0.601445 -0.37753,0.398352 -0.566294,0.926893 -0.566294,1.585611 0,0.591028 0.174454,1.072703 0.523331,1.445023 0.351493,0.369718 0.812337,0.554572 1.382533,0.554572 0.421791,0 0.786301,-0.09243 1.093528,-0.277283 V 5.213797 c -0.307227,0.231712 -0.635287,0.347582 -0.984174,0.347582 -0.413979,0 -0.744641,-0.135405 -0.991987,-0.406163 -0.244738,-0.270779 -0.367114,-0.640498 -0.367114,-1.109154 0,-0.476465 0.130191,-0.860501 0.390548,-1.152107 0.262967,-0.294215 0.598836,-0.44132 1.007607,-0.44132 0.338473,0 0.656116,0.104143 0.952933,0.312439 V 2.108952 c -0.268177,-0.13019 -0.578009,-0.195261 -0.9295,-0.195261 z m 3.655509,0 c -0.624874,0 -1.120867,0.188761 -1.487981,0.566293 -0.367112,0.37753 -0.550669,0.902165 -0.550669,1.573899 0,0.617061 0.175737,1.113055 0.527238,1.48798 0.354095,0.372325 0.826654,0.558479 1.41768,0.558479 0.606647,0 1.089624,-0.191356 1.448927,-0.574097 0.361904,-0.385341 0.542856,-0.896957 0.542856,-1.534848 0,-0.650908 -0.167929,-1.159917 -0.503802,-1.52703 C 20.346136,2.097235 19.881386,1.913678 19.285154,1.913678 Z m 4.819336,0 c -0.544162,0 -0.958141,0.242144 -1.241938,0.726419 h -0.01562 V 2.007415 h -0.640495 v 3.999188 h 0.640495 V 3.725811 c 0,-0.377524 0.09112,-0.683454 0.273384,-0.917781 0.182261,-0.236928 0.413977,-0.355395 0.69517,-0.355395 0.606647,0 0.909972,0.393148 0.909972,1.179448 v 2.37452 h 0.640495 V 3.725811 c 0,-0.348884 0.09502,-0.648303 0.285099,-0.898252 0.192666,-0.249953 0.425693,-0.374924 0.699076,-0.374924 0.32285,0 0.551971,0.09895 0.68736,0.296814 0.137999,0.197882 0.206999,0.518121 0.206999,0.960745 v 2.296409 h 0.640495 V 3.542256 c 0,-1.085714 -0.440013,-1.628578 -1.320044,-1.628578 -0.588421,0 -1.03104,0.27599 -1.327854,0.82796 C 25.161584,2.494305 25.022275,2.295114 24.819199,2.144104 24.616102,1.990486 24.377882,1.913676 24.1045,1.913676 Z m 6.561169,0 c -0.52333,0 -0.962045,0.196571 -1.31614,0.589729 -0.351491,0.390548 -0.527235,0.89695 -0.527235,1.519223 0,0.658721 0.161429,1.170338 0.484276,1.534843 0.32285,0.361907 0.766771,0.542856 1.33176,0.542856 0.578007,0 1.042758,-0.127571 1.394249,-0.382736 V 5.116154 c -0.377527,0.296814 -0.791506,0.445223 -1.241937,0.445223 -0.400959,0 -0.715999,-0.121071 -0.94512,-0.363207 C 29.616393,4.956027 29.496623,4.612348 29.486209,4.167125 h 2.823647 V 3.831261 c 0,-0.601446 -0.143191,-1.071402 -0.4296,-1.409874 C 31.593857,2.082916 31.18899,1.913676 30.665659,1.913678 Z m 9.279369,0 c -0.624874,0 -1.120867,0.188761 -1.487981,0.566293 -0.367112,0.37753 -0.550669,0.902165 -0.550669,1.573899 0,0.617061 0.175738,1.113055 0.527238,1.48798 0.354093,0.372325 0.826655,0.558479 1.41768,0.558479 0.606648,0 1.089621,-0.191356 1.448924,-0.574097 0.361907,-0.385341 0.542858,-0.896957 0.542858,-1.534848 0,-0.650908 -0.167926,-1.159917 -0.503803,-1.52703 C 41.00601,2.097235 40.54126,1.913678 39.945028,1.913678 Z m 12.712264,0 c -0.544159,0 -0.958137,0.242144 -1.241935,0.726419 h -0.01562 V 2.007415 h -0.640499 v 3.999188 h 0.640491 V 3.725811 c 0,-0.377524 0.09112,-0.683454 0.273383,-0.917781 0.182261,-0.236928 0.413978,-0.355395 0.695171,-0.355395 0.606647,0 0.909971,0.393148 0.909971,1.179448 v 2.37452 h 0.640494 V 3.725811 c 0,-0.348884 0.09502,-0.648303 0.2851,-0.898252 0.192667,-0.249953 0.425695,-0.374924 0.699077,-0.374924 0.322852,0 0.551971,0.09895 0.687361,0.296814 0.138,0.197882 0.206975,0.518121 0.206975,0.960745 v 2.296409 h 0.640496 V 3.542256 c 0,-1.085714 -0.440015,-1.628578 -1.320045,-1.628578 -0.588421,0 -1.03104,0.27599 -1.327856,0.82796 -0.0755,-0.247333 -0.21481,-0.446524 -0.417885,-0.597534 -0.203095,-0.153618 -0.441316,-0.230428 -0.7147,-0.230428 z m 6.56117,0 c -0.523331,0 -0.962043,0.196571 -1.316138,0.589729 -0.351493,0.390548 -0.527239,0.89695 -0.527239,1.519223 0,0.658721 0.161429,1.170338 0.484279,1.534843 0.32285,0.361907 0.766771,0.542856 1.331762,0.542856 0.578007,0 1.042757,-0.127571 1.394246,-0.382736 V 5.116154 c -0.377528,0.296814 -0.791506,0.445223 -1.241935,0.445223 -0.400962,0 -0.715999,-0.121071 -0.945121,-0.363207 C 58.169197,4.956027 58.049428,4.612348 58.039015,4.167125 h 2.823647 V 3.831261 c 0,-0.601446 -0.143191,-1.071402 -0.429601,-1.409874 -0.2864,-0.338471 -0.691267,-0.507711 -1.214599,-0.507709 z m 11.46252,0 c -0.523332,0 -0.962043,0.196571 -1.316137,0.589729 -0.351494,0.390548 -0.527239,0.89695 -0.527239,1.519223 0,0.658721 0.161428,1.170338 0.484275,1.534843 0.322852,0.361907 0.766773,0.542856 1.331762,0.542856 0.57801,0 1.04276,-0.127571 1.394249,-0.382736 V 5.116154 c -0.377527,0.296814 -0.791506,0.445223 -1.241935,0.445223 -0.400962,0 -0.716001,-0.121071 -0.945121,-0.363207 C 69.631718,4.956027 69.511949,4.612348 69.501535,4.167125 h 2.823646 V 3.831261 c 0,-0.601446 -0.14319,-1.071402 -0.429602,-1.409874 C 71.609178,2.082916 71.204312,1.913676 70.680982,1.913678 Z m 4.065582,0 c -0.512917,0 -0.96595,0.124976 -1.3591,0.374924 v 0.656121 c 0.387943,-0.328059 0.822749,-0.492088 1.304423,-0.492088 0.549369,0 0.824052,0.339772 0.824052,1.019321 l -1.198975,0.167929 c -0.880031,0.122355 -1.320045,0.557181 -1.320045,1.304422 0,0.348889 0.111952,0.628778 0.335868,0.83967 0.226525,0.210904 0.538955,0.316342 0.937312,0.316342 0.541557,0 0.951628,-0.239523 1.230219,-0.718599 h 0.01562 v 0.624873 h 0.640495 V 3.405557 c 0,-0.994592 -0.469956,-1.491893 -1.40987,-1.491893 z m 4.514702,0 c -0.544152,0 -0.95813,0.242144 -1.241935,0.726419 h -0.0156 V 2.007415 h -0.6405 v 3.999188 h 0.6405 V 3.725811 c 0,-0.377524 0.09112,-0.683454 0.273377,-0.917781 0.182269,-0.236928 0.413979,-0.355395 0.695172,-0.355395 0.606649,0 0.909965,0.393148 0.909965,1.179448 v 2.37452 h 0.640508 V 3.725811 c 0,-0.348884 0.09501,-0.648303 0.285089,-0.898252 0.19267,-0.249953 0.425698,-0.374924 0.699075,-0.374924 0.322861,0 0.551977,0.09895 0.687364,0.296814 0.138007,0.197882 0.207002,0.518121 0.207002,0.960745 v 2.296409 h 0.640499 V 3.542256 c 0,-1.085714 -0.440021,-1.628578 -1.320047,-1.628578 -0.58843,0 -1.031045,0.27599 -1.327863,0.82796 C 80.318382,2.494305 80.179071,2.295114 79.97599,2.144104 79.7729,1.990486 79.534675,1.913676 79.26129,1.913676 Z m 8.127268,0 c -0.195265,0 -0.385333,0.02469 -0.570212,0.07422 -0.182235,0.04945 -0.344967,0.123667 -0.488179,0.22262 -0.143186,0.09633 -0.257753,0.217405 -0.343673,0.363205 -0.08595,0.14319 -0.128872,0.30853 -0.128872,0.495992 0,0.153619 0.02219,0.287703 0.06632,0.40226 0.0468,0.114571 0.114549,0.217404 0.203072,0.308538 0.09108,0.08852 0.20309,0.169238 0.335866,0.242143 0.135387,0.07029 0.291612,0.140595 0.468659,0.21088 0.127571,0.04945 0.246041,0.09764 0.355402,0.1445 0.111947,0.04426 0.208278,0.09502 0.288993,0.15231 0.08325,0.05726 0.148409,0.123666 0.195265,0.199165 0.04947,0.07291 0.07424,0.162713 0.07424,0.269478 0,0.374925 -0.281194,0.562387 -0.843581,0.562387 -0.419183,0 -0.803223,-0.128882 -1.152102,-0.386643 v 0.687361 c 0.302015,0.158808 0.658718,0.238238 1.070086,0.238238 0.208286,0 0.407471,-0.02343 0.597539,-0.07029 0.190068,-0.04686 0.357996,-0.118477 0.503794,-0.21481 0.145815,-0.09633 0.261674,-0.217404 0.347594,-0.363207 0.08851,-0.14581 0.132785,-0.317647 0.132785,-0.515521 0,-0.16143 -0.02728,-0.300719 -0.082,-0.417884 C 88.36748,4.401454 88.291959,4.298621 88.193,4.210092 88.09408,4.118972 87.974295,4.038235 87.833703,3.967949 c -0.140601,-0.0729 -0.299412,-0.14319 -0.476467,-0.21088 -0.132785,-0.05205 -0.251255,-0.100237 -0.355394,-0.1445 -0.104139,-0.04426 -0.19267,-0.09374 -0.265569,-0.148404 -0.07291,-0.05466 -0.128881,-0.117167 -0.167929,-0.187452 -0.03637,-0.07031 -0.05472,-0.157523 -0.05472,-0.261667 0,-0.08331 0.01819,-0.158834 0.05472,-0.226524 0.03904,-0.07029 0.09243,-0.130191 0.160121,-0.179642 0.07024,-0.04945 0.153623,-0.08722 0.249945,-0.113262 0.09634,-0.02866 0.204391,-0.043 0.324162,-0.043 0.38273,0 0.721198,0.09633 1.015414,0.289003 V 2.093311 C 88.044608,1.97355 87.734769,1.913669 87.388493,1.913669 Z m 33.559586,0 c -0.60664,0 -1.06748,0.265574 -1.38253,0.796719 h -0.0156 V 2.007415 h -0.6405 v 5.838654 h 0.6405 V 5.428595 h 0.0156 c 0.28119,0.447827 0.68086,0.671734 1.19898,0.671734 0.56499,0 1.01021,-0.200476 1.33567,-0.601437 0.32545,-0.403565 0.48818,-0.939917 0.48818,-1.609047 0,-0.601447 -0.1445,-1.080515 -0.4335,-1.43721 -0.28901,-0.3593 -0.69127,-0.538957 -1.2068,-0.538957 z m 7.20948,0 c -0.62486,0 -1.12087,0.188761 -1.48797,0.566293 -0.36713,0.37753 -0.55068,0.902165 -0.55068,1.573899 0,0.617061 0.17575,1.113055 0.52724,1.48798 0.3541,0.372325 0.82665,0.558479 1.41768,0.558479 0.60664,0 1.08963,-0.191356 1.44892,-0.574097 0.36191,-0.385341 0.54286,-0.896957 0.54286,-1.534848 0,-0.650908 -0.16793,-1.159917 -0.50381,-1.52703 -0.33325,-0.367119 -0.798,-0.550676 -1.39424,-0.550676 z m 10.86888,0 c -0.52332,0 -0.96204,0.196571 -1.31612,0.589729 -0.3515,0.390548 -0.52725,0.89695 -0.52725,1.519223 0,0.658721 0.16143,1.170338 0.48429,1.534843 0.32284,0.361907 0.76676,0.542856 1.33175,0.542856 0.57801,0 1.04277,-0.127571 1.39425,-0.382736 V 5.116154 c -0.37753,0.296814 -0.79151,0.445223 -1.24194,0.445223 -0.40095,0 -0.716,-0.121071 -0.94512,-0.363207 -0.22912,-0.242143 -0.34888,-0.585822 -0.3593,-1.031045 h 2.82365 V 3.831261 c 0,-0.601446 -0.14319,-1.071402 -0.4296,-1.409874 -0.2864,-0.338471 -0.69127,-0.507711 -1.21461,-0.507709 z m -13.71205,0.02343 c -0.23171,0 -0.44132,0.07941 -0.62879,0.238238 -0.18747,0.156215 -0.32676,0.374923 -0.41787,0.656123 h -0.0156 V 2.007413 h -0.64051 v 3.999189 h 0.64051 V 3.96795 c 0,-0.445217 0.0912,-0.796712 0.27337,-1.054474 0.18487,-0.257754 0.41398,-0.386636 0.68737,-0.386636 0.21088,0 0.37232,0.043 0.48427,0.128882 V 1.991787 c -0.0885,-0.03645 -0.21609,-0.05465 -0.38274,-0.05465 z m -76.492296,0.07031 v 3.99919 h 0.640495 V 2.007419 Z m 12.41545,0 1.562183,3.991377 -0.320247,0.757659 c -0.161429,0.385335 -0.403565,0.57801 -0.726414,0.57801 -0.114572,0 -0.240833,-0.02343 -0.37883,-0.07029 v 0.574104 c 0.111951,0.03386 0.251261,0.05079 0.417885,0.05079 0.593628,0 1.054474,-0.413984 1.382531,-1.241936 l 1.839469,-4.639687 h -0.663927 l -1.136488,3.085309 c -0.03904,0.135381 -0.0651,0.234334 -0.07812,0.296819 h -0.02343 C 63.070526,5.22555 63.043196,5.124002 63.030166,5.08495 L 61.948355,2.007445 Z m 35.92631,0 v 3.99919 h 0.6405 V 2.007419 Z m 10.240106,0 v 2.390141 c 0,1.135183 0.47645,1.702777 1.4294,1.702777 0.55717,0 0.96855,-0.242144 1.23412,-0.726415 h 0.0156 v 0.632687 h 0.6405 V 2.007419 h -0.6405 v 2.304222 c 0,0.372315 -0.10154,0.674341 -0.30462,0.90606 -0.20047,0.229118 -0.45694,0.343684 -0.76938,0.343684 -0.6457,0 -0.96854,-0.421789 -0.96854,-1.265369 V 2.007419 Z m 26.17828,0 v 3.99919 h 0.6405 V 2.007414 Z M 9.2637477,2.452664 c 0.312438,0 0.555877,0.102834 0.73032,0.308532 C 10.171116,2.966887 10.260942,3.254581 10.263545,3.6243 H 8.1038247 c 0.04947,-0.348888 0.179644,-0.631385 0.390548,-0.847481 0.21088,-0.216094 0.467353,-0.324155 0.769375,-0.324155 z m 9.9745413,0 c 0.413978,0 0.731621,0.135381 0.952931,0.406165 0.223904,0.270779 0.335868,0.656122 0.335868,1.156019 0,0.494687 -0.111951,0.876123 -0.335868,1.144294 -0.22131,0.26818 -0.538953,0.402265 -0.952931,0.402265 -0.406169,0 -0.730322,-0.13669 -0.972459,-0.410069 -0.242143,-0.273386 -0.363209,-0.647009 -0.363209,-1.120867 0,-0.492092 0.119762,-0.877427 0.359301,-1.156018 0.23955,-0.28119 0.564991,-0.421789 0.976367,-0.421789 z m 11.415654,0 c 0.312435,0 0.555875,0.102834 0.730321,0.308532 0.177047,0.205691 0.266871,0.493385 0.269475,0.863104 h -2.159718 c 0.04948,-0.348888 0.179643,-0.631385 0.390546,-0.847481 0.210905,-0.216094 0.467354,-0.324155 0.769376,-0.324155 z m 9.244218,0 c 0.413978,0 0.731623,0.135381 0.952932,0.406165 0.223905,0.270779 0.335869,0.656122 0.335869,1.156019 0,0.494687 -0.111952,0.876123 -0.335869,1.144294 -0.221309,0.26818 -0.538954,0.402265 -0.952932,0.402265 -0.406167,0 -0.730322,-0.13669 -0.97246,-0.410069 -0.242143,-0.273386 -0.363206,-0.647009 -0.363206,-1.120867 0,-0.492092 0.119761,-0.877427 0.359302,-1.156018 0.239522,-0.28119 0.564991,-0.421789 0.976364,-0.421789 z m 19.308586,0 c 0.312436,0 0.555876,0.102834 0.730318,0.308532 0.177048,0.205691 0.266875,0.493385 0.26948,0.863104 h -2.159718 c 0.04948,-0.348888 0.179641,-0.631385 0.390544,-0.847481 0.210906,-0.216094 0.467352,-0.324155 0.769376,-0.324155 z m 11.462517,0 c 0.312439,0 0.555879,0.102834 0.730322,0.308532 0.177048,0.205691 0.266875,0.493385 0.269476,0.863104 h -2.159718 c 0.04948,-0.348888 0.179643,-0.631385 0.390547,-0.847481 0.210906,-0.216094 0.467353,-0.324155 0.769373,-0.324155 z m 43.225606,0 c 0.35148,0 0.63007,0.126287 0.83577,0.378832 0.2057,0.252547 0.30852,0.601437 0.30852,1.046659 0,0.528541 -0.11066,0.941216 -0.33196,1.238031 -0.21871,0.296811 -0.52203,0.445221 -0.90997,0.445221 -0.33066,0 -0.60405,-0.114572 -0.82014,-0.343683 -0.2135,-0.231714 -0.32025,-0.512915 -0.32025,-0.843576 V 3.815669 c 0,-0.390547 0.11327,-0.714701 0.33978,-0.972465 0.22651,-0.260358 0.52594,-0.39054 0.89825,-0.39054 z m 6.89314,0 c 0.35148,0 0.63007,0.126287 0.83576,0.378832 0.2057,0.252547 0.30853,0.601437 0.30853,1.046659 0,0.528541 -0.11064,0.941216 -0.33196,1.238031 -0.21872,0.296811 -0.52203,0.445221 -0.90998,0.445221 -0.33066,0 -0.60404,-0.114572 -0.82015,-0.343683 -0.21349,-0.231714 -0.32024,-0.512915 -0.32024,-0.843576 V 3.815669 c 0,-0.390547 0.11327,-0.714701 0.33977,-0.972465 0.22653,-0.260358 0.52594,-0.39054 0.89827,-0.39054 z m 7.32273,0 c 0.41398,0 0.73162,0.135381 0.95292,0.406165 0.22391,0.270779 0.33588,0.656122 0.33588,1.156019 0,0.494687 -0.11195,0.876123 -0.33588,1.144294 -0.2213,0.26818 -0.53894,0.402265 -0.95292,0.402265 -0.40617,0 -0.73032,-0.13669 -0.97246,-0.410069 -0.24215,-0.273386 -0.36321,-0.647009 -0.36321,-1.120867 0,-0.492092 0.11976,-0.877427 0.3593,-1.156018 0.23955,-0.28119 0.56499,-0.421789 0.97637,-0.421789 z m 10.90403,0 c 0.31244,0 0.55587,0.102834 0.73033,0.308532 0.17703,0.205691 0.26687,0.493385 0.26947,0.863104 h -2.15972 c 0.0495,-0.348888 0.17964,-0.631385 0.39054,-0.847481 0.21092,-0.216094 0.46736,-0.324155 0.76938,-0.324155 z M 75.515939,3.9836 v 0.39836 c 0,0.341078 -0.104143,0.623574 -0.312438,0.847483 -0.20569,0.221309 -0.467352,0.331964 -0.784995,0.331964 -0.231713,0 -0.417885,-0.06119 -0.55848,-0.183547 -0.138001,-0.124977 -0.207001,-0.285103 -0.207001,-0.480369 0,-0.268179 0.0755,-0.454336 0.226524,-0.558481 0.151,-0.106763 0.374923,-0.180953 0.671741,-0.222619 z m 66.611481,1.230226 c -0.11976,0 -0.22259,0.043 -0.30853,0.128881 -0.0833,0.08331 -0.12498,0.184857 -0.12498,0.304631 0,0.119761 0.0417,0.221311 0.12498,0.304624 0.0859,0.08331 0.18876,0.124976 0.30853,0.124976 0.11718,0 0.21872,-0.04167 0.30464,-0.124976 0.0859,-0.08331 0.12888,-0.184857 0.12888,-0.304624 0,-0.119761 -0.0429,-0.221309 -0.12888,-0.304631 -0.0859,-0.0859 -0.18745,-0.128881 -0.30464,-0.128881 z" />
</svg>