<svg width="1200" height="600" xmlns="http://www.w3.org/2000/svg">
    <defs>
        <clipPath id="lclip">
            <rect x="1641" y="409" width="714" height="1104" />
        </clipPath>
        <linearGradient x1="1494.57" y1="635.412" x2="2501.43" y2="1286.59" gradientUnits="userSpaceOnUse"
            spreadMethod="reflect" id="limey">
            <stop offset="0" stop-color="#57EE25" />
            <stop offset="0.016129" stop-color="#56ED24" />
            <stop offset="0.0322581" stop-color="#56ED24" />
            <stop offset="0.0483871" stop-color="#56ED24" />
            <stop offset="0.0645161" stop-color="#56ED24" />
            <stop offset="0.0806452" stop-color="#56ED24" />
            <stop offset="0.0967742" stop-color="#56ED24" />
            <stop offset="0.112903" stop-color="#56EC24" />
            <stop offset="0.129032" stop-color="#56EC24" />
            <stop offset="0.145161" stop-color="#56EC24" />
            <stop offset="0.16129" stop-color="#56EB24" />
            <stop offset="0.177419" stop-color="#55EB24" />
            <stop offset="0.193548" stop-color="#55EB24" />
            <stop offset="0.209677" stop-color="#55EA23" />
            <stop offset="0.225806" stop-color="#55EA23" />
            <stop offset="0.241935" stop-color="#54E923" />
            <stop offset="0.258065" stop-color="#54E923" />
            <stop offset="0.274194" stop-color="#54E823" />
            <stop offset="0.290323" stop-color="#54E723" />
            <stop offset="0.306452" stop-color="#53E722" />
            <stop offset="0.322581" stop-color="#53E622" />
            <stop offset="0.33871" stop-color="#53E522" />
            <stop offset="0.354839" stop-color="#52E422" />
            <stop offset="0.370968" stop-color="#52E421" />
            <stop offset="0.387097" stop-color="#52E321" />
            <stop offset="0.403226" stop-color="#51E221" />
            <stop offset="0.419355" stop-color="#51E121" />
            <stop offset="0.435484" stop-color="#50E020" />
            <stop offset="0.451613" stop-color="#50DF20" />
            <stop offset="0.467742" stop-color="#50DE20" />
            <stop offset="0.483871" stop-color="#4FDD1F" />
            <stop offset="0.5" stop-color="#4FDC1F" />
            <stop offset="0.516129" stop-color="#4EDB1F" />
            <stop offset="0.532258" stop-color="#4EDA1E" />
            <stop offset="0.548387" stop-color="#4DD91E" />
            <stop offset="0.564516" stop-color="#4DD81E" />
            <stop offset="0.580645" stop-color="#4CD71D" />
            <stop offset="0.596774" stop-color="#4BD61D" />
            <stop offset="0.612903" stop-color="#4BD41D" />
            <stop offset="0.629032" stop-color="#4AD31C" />
            <stop offset="0.645161" stop-color="#4AD21C" />
            <stop offset="0.66129" stop-color="#49D01B" />
            <stop offset="0.677419" stop-color="#49CF1B" />
            <stop offset="0.693548" stop-color="#48CE1A" />
            <stop offset="0.709677" stop-color="#47CC1A" />
            <stop offset="0.725806" stop-color="#47CB1A" />
            <stop offset="0.741935" stop-color="#46CA19" />
            <stop offset="0.758065" stop-color="#45C819" />
            <stop offset="0.774194" stop-color="#45C718" />
            <stop offset="0.790323" stop-color="#44C518" />
            <stop offset="0.806452" stop-color="#43C317" />
            <stop offset="0.822581" stop-color="#42C217" />
            <stop offset="0.83871" stop-color="#42C016" />
            <stop offset="0.854839" stop-color="#41BF16" />
            <stop offset="0.870968" stop-color="#40BD15" />
            <stop offset="0.887097" stop-color="#3FBB15" />
            <stop offset="0.903226" stop-color="#3FB914" />
            <stop offset="0.919355" stop-color="#3EB813" />
            <stop offset="0.935484" stop-color="#3DB613" />
            <stop offset="0.951613" stop-color="#3CB412" />
            <stop offset="0.967742" stop-color="#3BB212" />
            <stop offset="0.983871" stop-color="#3AB011" />
            <stop offset="1" stop-color="#3AAF11" />
        </linearGradient>
    </defs>
    <style>
        #limeylogo {
            animation: scale 2s cubic-bezier(0.22, 1, 0.36, 1);
            animation-fill-mode: forwards;
            transform-origin: center;
            background: red;
            transform-box: content-box;
        }

        /* for debugging: */
        /* svg {
            background: rgba(0, 0, 0, 0.15);
            outline: 3px dashed white;
        } */

        #spin {
            transform-box: fill-box;
            transform-origin: center;
            animation: spin 5s linear infinite, length 5s cubic-bezier(0.22, 1, 0.36, 1);
            animation-fill-mode: forwards;
            /* transform-origin: 50% 50%; */
        }

        #up {
            fill: white;
            font: 30px system-ui, -apple-system, "Segoe UI", Roboto, "Helvetica Neue", Arial, "Noto Sans", "Liberation Sans", sans-serif, "Apple Color Emoji", "Segoe UI Emoji", "Segoe UI Symbol", "Noto Color Emoji";
            ;
            animation: move 2s ease;
            animation-fill-mode: forwards;
        }

        #upbg {
            fill: rgba(0, 0, 0, 0.25);
            animation: move 2s ease;
            animation-fill-mode: forwards;
            x: -10;
            y: -43;
            z-index: -1;
        }

        @keyframes move {
            from {
                transform: translate(25%, 125%);
            }

            to {
                transform: translate(25%, calc(100% - 75px));
            }
        }

        @keyframes length {
            from {
                stroke-dashoffset: 992.743;
                opacity: 0;
            }

            to {
                stroke-dashoffset: 744.557;
                opacity: 1;
            }
        }

        @keyframes spin {
            from {
                transform: rotate(0deg);
            }

            to {
                transform: rotate(360deg);
            }
        }

        @keyframes scale {
            from {
                /* transform: matrix(0.16919509,0,0,0.16919509,261.94821,137.40352) scale(0) translate(-500%, -500%); */
                transform: scale(0.05);
                opacity: 0;
            }

            to {
                transform: matrix(0.16919509, 0, 0, 0.16919509, 261.94821, 137.40352) scale(1) translate(-250%, -250%);
                opacity: 1;
            }
        }

        .flyaround1 {
            animation: flyaround1 100s ease-out infinite;
        }

        .flyaround2 {
            animation: flyaround2 100s ease-out infinite;
        }

        .flyaround3 {
            animation: flyaround3 100s ease-out infinite;
        }

        .flyaround4 {
            animation: flyaround4 100s ease-out infinite;
        }

        .flyaround5 {
            animation: flyaround5 100s ease-out infinite;
        }

        @keyframes flyaround1 {
            0% {
                transform: translate(200%, 200%) rotate(90deg);
                opacity: 0;
            }

            10% {
                opacity: 1;
            }

            20% {
                transform: translate(0%) rotate(-45deg);
                opacity: 0;
            }

            100% {
                opacity: 0;
            }
        }

        @keyframes flyaround2 {

            0%,
            20% {
                transform: translate(0%, 100%) rotate(-10deg);
                opacity: 0;
            }

            30% {
                opacity: 1;
            }

            40% {
                transform: translate(100%, 0%) rotate(10deg);
                opacity: 0;
            }

            100% {
                opacity: 0;
            }
        }

        @keyframes flyaround3 {

            0%,
            40% {
                transform: translate(0%, 0%) rotate(10deg);
                opacity: 0;
            }

            50% {
                opacity: 1;
            }

            60% {
                transform: translate(100%, 100%) rotate(-10deg);
                opacity: 0;
            }

            100% {
                opacity: 0;
            }
        }

        @keyframes flyaround4 {

            0%,
            60% {
                transform: translate(100%, 0%) rotate(10deg);
                opacity: 0;
            }

            70% {
                opacity: 1;
            }

            80% {
                transform: translate(0%, 100%) rotate(-10deg);
                opacity: 0;
            }

            100% {
                opacity: 0;
            }
        }

        @keyframes flyaround5 {

            0%,
            80% {
                transform: translate(0%, 0%) rotate(10deg);
                opacity: 0;
            }

            90% {
                opacity: 1;
            }

            100% {
                transform: translate(100%, 100%) rotate(-10deg);
                opacity: 0;
            }
        }
    </style>
    <!--#region logos-->

    <!-- rust   -->
    <g class="flyaround1"><svg width="60" height="60" viewBox="19 19 106 106" xmlns:xlink="http://www.w3.org/1999/xlink"
            xmlns="http://www.w3.org/2000/svg">
            <defs>
                <linearGradient id="prefix__a">
                    <stop offset="0" stop-color="#884d22" />
                    <stop offset="1" stop-color="#a65e2a" />
                </linearGradient>
                <linearGradient xlink:href="#prefix__a" id="prefix__b" x1="1.394" y1="7.465" x2="153.291" y2="141.149"
                    gradientUnits="userSpaceOnUse" />
            </defs>
            <path
                d="M124 70.7l-4.39-2.72a59.613 59.613 0 00-.125-1.28l3.78-3.52c.384-.358.556-.888.452-1.4a1.5 1.5 0 00-.953-1.12l-4.83-1.8a63.844 63.844 0 00-.378-1.25l3.01-4.18c.307-.425.37-.978.17-1.46a1.516 1.516 0 00-1.15-.914l-5.09-.828a38.524 38.524 0 00-.612-1.14l2.14-4.7a1.51 1.51 0 00-1.428-2.141l-5.17.18a40.822 40.822 0 00-.816-.99l1.19-5.03a1.515 1.515 0 00-1.823-1.823l-5.03 1.19a43.417 43.417 0 00-.992-.816l.181-5.17a1.515 1.515 0 00-2.141-1.429l-4.69 2.14a62.934 62.934 0 00-1.14-.613l-.83-5.09a1.5 1.5 0 00-.914-1.15 1.505 1.505 0 00-1.46.17l-4.18 3.01a50.417 50.417 0 00-1.24-.377l-1.8-4.83a1.51 1.51 0 00-2.52-.503l-3.52 3.78c-.425-.047-.853-.09-1.28-.125l-2.72-4.4a1.513 1.513 0 00-2.57 0l-2.72 4.4a44.71 44.71 0 00-1.28.125l-3.52-3.78a1.517 1.517 0 00-1.4-.452 1.505 1.505 0 00-1.12.955l-1.8 4.83c-.418.12-.832.247-1.24.377l-4.18-3.01a1.502 1.502 0 00-1.46-.17c-.483.2-.83.638-.914 1.15l-.83 5.09c-.384.199-.764.404-1.14.613l-4.69-2.14a1.514 1.514 0 00-2.141 1.429l.18 5.17c-.334.267-.665.54-.992.816l-5.03-1.19a1.514 1.514 0 00-1.823 1.823l1.18 5.03a48.63 48.63 0 00-.814.99l-5.17-.18a1.514 1.514 0 00-1.429 2.141l2.14 4.7c-.208.377-.414.757-.613 1.14l-5.09.828a1.51 1.51 0 00-.98 2.374l3.01 4.18c-.131.413-.258.828-.378 1.25l-4.83 1.8a1.51 1.51 0 00-.501 2.52l3.78 3.52c-.047.425-.089.853-.125 1.28l-4.39 2.72c-.445.275-.716.761-.716 1.29s.271 1.01.716 1.28l4.39 2.72c.036.428.078.855.125 1.28l-3.78 3.52a1.512 1.512 0 00.501 2.52l4.83 1.8c.12.418.247.833.378 1.25l-3.01 4.18a1.508 1.508 0 00.99 2.374l5.09.828c.199.386.403.766.613 1.14l-2.14 4.69a1.514 1.514 0 001.429 2.141l5.16-.181c.269.336.54.665.816.992l-1.18 5.03c-.12.51.031 1.04.403 1.41a1.51 1.51 0 001.42.402l5.03-1.18c.327.278.658.548.992.814l-.18 5.17a1.514 1.514 0 002.141 1.427l4.69-2.14c.378.21.758.414 1.14.613l.83 5.09c.084.518.43.956.914 1.16.483.201 1.04.136 1.46-.169l4.18-3.01c.413.131.828.259 1.25.379l1.8 4.83c.183.49.607.853 1.12.953a1.506 1.506 0 001.4-.452l3.52-3.78c.425.049.853.09 1.28.128l2.72 4.39c.274.443.761.716 1.28.716s1.01-.272 1.29-.716l2.72-4.39a49.06 49.06 0 001.28-.128l3.52 3.78c.357.384.887.556 1.4.452a1.502 1.502 0 001.12-.953l1.8-4.83c.418-.12.833-.248 1.25-.379l4.18 3.01a1.51 1.51 0 002.374-.991l.83-5.09c.384-.199.764-.406 1.14-.613l4.69 2.14a1.51 1.51 0 002.141-1.427l-.18-5.17c.334-.267.665-.536.991-.814l5.03 1.18a1.512 1.512 0 001.823-1.812l-1.18-5.03c.276-.327.548-.656.814-.992l5.17.181a1.504 1.504 0 001.31-.671 1.51 1.51 0 00.118-1.47l-2.14-4.69c.209-.379.414-.759.612-1.14l5.09-.828a1.493 1.493 0 001.15-.914c.2-.483.137-1.04-.17-1.46l-3.01-4.18c.13-.413.257-.828.378-1.25l4.83-1.8c.491-.184.853-.607.953-1.12a1.506 1.506 0 00-.452-1.4l-3.78-3.52c.046-.425.088-.853.125-1.28l4.39-2.72c.445-.274.716-.761.716-1.28s-.27-1.01-.715-1.29zm-29.4 36.5a3.112 3.112 0 01-2.38-3.7 3.107 3.107 0 013.69-2.39c1.68.359 2.75 2.02 2.39 3.7s-2.01 2.75-3.69 2.39zm-1.49-10.1a2.824 2.824 0 00-3.36 2.18l-1.56 7.28a38.32 38.32 0 01-15.8 3.4c-5.76 0-11.2-1.27-16.1-3.55l-1.56-7.28a2.83 2.83 0 00-3.36-2.18l-6.43 1.38a38.85 38.85 0 01-3.32-3.92h31.3c.354 0 .59-.064.59-.386v-11.1c0-.322-.236-.386-.59-.386h-9.15v-7.01h9.89c.903 0 4.83.258 6.08 5.28.393 1.54 1.26 6.56 1.85 8.17.588 1.8 2.98 5.4 5.53 5.4h15.6c.177 0 .366-.02.565-.056a39.07 39.07 0 01-3.54 4.16l-6.58-1.41zm-43.3 9.95a3.104 3.104 0 01-3.69-2.39 3.109 3.109 0 116.08-1.31 3.117 3.117 0 01-2.39 3.7zm-11.9-48.1a3.12 3.12 0 01-1.58 4.11c-1.57.697-3.4-.012-4.1-1.58s.012-3.41 1.58-4.11c1.57-.696 3.4.012 4.1 1.58zm-3.65 8.64l6.7-2.98a2.83 2.83 0 001.44-3.74l-1.38-3.12h5.42v24.4h-10.9a38.354 38.354 0 01-1.46-10.5c0-1.39.075-2.76.219-4.11zm29.4-2.37v-7.2h12.9c.667 0 4.71.771 4.71 3.79 0 2.51-3.1 3.41-5.65 3.41h-12zm46.9 6.48c0 .956-.035 1.9-.105 2.84h-3.93c-.393 0-.551.258-.551.643v1.8c0 4.24-2.39 5.17-4.49 5.4-2 .225-4.21-.836-4.48-2.06-1.18-6.63-3.14-8.04-6.24-10.5 3.85-2.44 7.85-6.05 7.85-10.9 0-5.21-3.57-8.49-6-10.1-3.42-2.25-7.2-2.7-8.22-2.7h-40.6c5.51-6.14 13-10.5 21.4-12.1l4.79 5.02a2.833 2.833 0 004.01.092l5.36-5.12c11.2 2.09 20.7 9.07 26.2 18.7l-3.67 8.28a2.837 2.837 0 001.44 3.74l7.06 3.14c.122 1.25.186 2.52.186 3.8zm-40.6-41.9a3.1 3.1 0 014.39.101 3.119 3.119 0 01-.103 4.4 3.098 3.098 0 01-4.39-.102 3.119 3.119 0 01.103-4.4zm36.4 29.3a3.101 3.101 0 014.1-1.58 3.113 3.113 0 011.58 4.11 3.101 3.101 0 01-4.1 1.58 3.113 3.113 0 01-1.58-4.11z"
                fill="url(#prefix__b)" />
        </svg></g>
    <!-- vscode -->
    <g class="flyaround2"><svg width="60" height="60" viewBox="0 0 100 100" fill="none"
            xmlns="http://www.w3.org/2000/svg">
            <mask id="prefix__a" maskUnits="userSpaceOnUse" x="0" y="0" width="100" height="100">
                <path fill-rule="evenodd" clip-rule="evenodd"
                    d="M70.912 99.317a6.223 6.223 0 004.96-.19l20.589-9.907A6.25 6.25 0 00100 83.587V16.413a6.25 6.25 0 00-3.54-5.632L75.874.874a6.226 6.226 0 00-7.104 1.21L29.355 38.04 12.187 25.01a4.162 4.162 0 00-5.318.236l-5.506 5.009a4.168 4.168 0 00-.004 6.162L16.247 50 1.36 63.583a4.168 4.168 0 00.004 6.162l5.506 5.01a4.162 4.162 0 005.318.236l17.168-13.032L68.77 97.917a6.217 6.217 0 002.143 1.4zM75.015 27.3L45.11 50l29.906 22.701V27.3z"
                    fill="#fff" />
            </mask>
            <g mask="url(#prefix__a)">
                <path
                    d="M96.461 10.796L75.857.876a6.23 6.23 0 00-7.107 1.207l-67.451 61.5a4.167 4.167 0 00.004 6.162l5.51 5.009a4.167 4.167 0 005.32.236l81.228-61.62c2.725-2.067 6.639-.124 6.639 3.297v-.24a6.25 6.25 0 00-3.539-5.63z"
                    fill="#0065A9" />
                <g filter="url(#prefix__filter0_d)">
                    <path
                        d="M96.461 89.204l-20.604 9.92a6.229 6.229 0 01-7.107-1.207l-67.451-61.5a4.167 4.167 0 01.004-6.162l5.51-5.009a4.167 4.167 0 015.32-.236l81.228 61.62c2.725 2.067 6.639.124 6.639-3.297v.24a6.25 6.25 0 01-3.539 5.63z"
                        fill="#007ACC" />
                </g>
                <g filter="url(#prefix__filter1_d)">
                    <path
                        d="M75.858 99.126a6.232 6.232 0 01-7.108-1.21c2.306 2.307 6.25.674 6.25-2.588V4.672c0-3.262-3.944-4.895-6.25-2.589a6.232 6.232 0 017.108-1.21l20.6 9.908A6.25 6.25 0 01100 16.413v67.174a6.25 6.25 0 01-3.541 5.633l-20.601 9.906z"
                        fill="#1F9CF0" />
                </g>
                <path fill-rule="evenodd" clip-rule="evenodd"
                    d="M70.851 99.317a6.224 6.224 0 004.96-.19L96.4 89.22a6.25 6.25 0 003.54-5.633V16.413a6.25 6.25 0 00-3.54-5.632L75.812.874a6.226 6.226 0 00-7.104 1.21L29.294 38.04 12.126 25.01a4.162 4.162 0 00-5.317.236l-5.507 5.009a4.168 4.168 0 00-.004 6.162L16.186 50 1.298 63.583a4.168 4.168 0 00.004 6.162l5.507 5.009a4.162 4.162 0 005.317.236L29.294 61.96l39.414 35.958a6.218 6.218 0 002.143 1.4zM74.954 27.3L45.048 50l29.906 22.701V27.3z"
                    fill="url(#prefix__paint0_linear)" opacity=".25" />
            </g>
            <defs>
                <filter id="prefix__filter0_d" x="-8.394" y="15.829" width="116.727" height="92.246"
                    filterUnits="userSpaceOnUse" color-interpolation-filters="sRGB">
                    <feFlood flood-opacity="0" result="BackgroundImageFix" />
                    <feColorMatrix in="SourceAlpha" values="0 0 0 0 0 0 0 0 0 0 0 0 0 0 0 0 0 0 127 0" />
                    <feOffset />
                    <feGaussianBlur stdDeviation="4.167" />
                    <feColorMatrix values="0 0 0 0 0 0 0 0 0 0 0 0 0 0 0 0 0 0 0.25 0" />
                    <feBlend mode="overlay" in2="BackgroundImageFix" result="effect1_dropShadow" />
                    <feBlend in="SourceGraphic" in2="effect1_dropShadow" result="shape" />
                </filter>
                <filter id="prefix__filter1_d" x="60.417" y="-8.076" width="47.917" height="116.151"
                    filterUnits="userSpaceOnUse" color-interpolation-filters="sRGB">
                    <feFlood flood-opacity="0" result="BackgroundImageFix" />
                    <feColorMatrix in="SourceAlpha" values="0 0 0 0 0 0 0 0 0 0 0 0 0 0 0 0 0 0 127 0" />
                    <feOffset />
                    <feGaussianBlur stdDeviation="4.167" />
                    <feColorMatrix values="0 0 0 0 0 0 0 0 0 0 0 0 0 0 0 0 0 0 0.25 0" />
                    <feBlend mode="overlay" in2="BackgroundImageFix" result="effect1_dropShadow" />
                    <feBlend in="SourceGraphic" in2="effect1_dropShadow" result="shape" />
                </filter>
                <linearGradient id="prefix__paint0_linear" x1="49.939" y1=".258" x2="49.939" y2="99.742"
                    gradientUnits="userSpaceOnUse">
                    <stop stop-color="#fff" />
                    <stop offset="1" stop-color="#fff" stop-opacity="0" />
                </linearGradient>
            </defs>
        </svg></g>
    <!-- html   -->
    <g class="flyaround3"><svg width="60" height="60" viewBox="0 0 512 512" xmlns="http://www.w3.org/2000/svg">
            <path fill="#e44d26" d="M107.6 420.7l-33-370.4h362.8l-33 370.2-148.7 41.2" />
            <path fill="#f16529" d="M256 430.75V81.25h148.3l-28.3 316" />
            <path fill="#ebebeb"
                d="M142 127.35h114v45.4h-64.2l4.2 46.5h60v45.3H154.4m2 22.8H202l3.2 36.3 50.8 13.6v47.4l-93.2-26" />
            <path fill="#fff"
                d="M369.6 127.45H255.8v45.4h109.6m-4.1 46.5H255.8v45.4h56l-5.3 59-50.7 13.6v47.2l93-25.8" />
        </svg></g>
    <!-- csharp -->
    <g class="flyaround4"><svg width="60" height="60" xmlns="http://www.w3.org/2000/svg" viewBox="0 0 64 64">
            <defs>
                <style>
                    .prefix__cls-3 {
                        fill: #fff
                    }
                </style>
            </defs>
            <circle cx="32" cy="32" r="32" fill="#05930c" />
            <path d="M9.82 9A32 32 0 1055 54.18z" opacity=".1" fill="#fff" />
            <path class="prefix__cls-3"
                d="M30.43 43.55a14.78 14.78 0 01-7 1.48 11.23 11.23 0 01-8.61-3.46 12.78 12.78 0 01-3.23-9.09 13.39 13.39 0 013.64-9.77A12.35 12.35 0 0124.49 19a14.8 14.8 0 015.94 1v3.15a12 12 0 00-6-1.51 9.17 9.17 0 00-7 2.9 10.93 10.93 0 00-2.7 7.75 10.4 10.4 0 002.52 7.34 8.58 8.58 0 006.62 2.73 12.42 12.42 0 006.57-1.69zM52.76 26.46l-.4 1.86h-4.6l-1.1 5.28h4.94l-.47 1.86h-4.84l-1.55 7h-2.21l1.51-7h-4.4l-1.48 7H36l1.48-7h-4.64l.35-1.86h4.66l1.07-5.27h-4.87l.37-1.86h4.87l1.48-7.07H43l-1.48 7.07h4.43l1.51-7.07h2.16l-1.48 7.07zm-7.17 1.86h-4.44L40 33.6h4.46z" />
        </svg></g>
    <!-- bash   -->
    <g class="flyaround5"><svg width="60" height="60" viewBox="0 0 79.37 90.71" xmlns="http://www.w3.org/2000/svg">
            <g fill="none" fill-rule="evenodd">
                <path
                    d="M73.846 18.52L45.209 1.523a10.789 10.789 0 00-11.049 0L5.523 18.52C2.106 20.55 0 24.299 0 28.357v33.998c0 4.057 2.106 7.808 5.524 9.837l28.637 16.996a10.798 10.798 0 0011.047 0l28.637-16.996c3.418-2.03 5.525-5.78 5.525-9.837V28.357c0-4.058-2.107-7.807-5.524-9.836z"
                    fill="#fefefe" />
                <path
                    d="M35.162 87.448L6.525 70.452c-2.801-1.663-4.541-4.765-4.541-8.097V28.358c0-3.332 1.74-6.434 4.54-8.096l28.638-17a8.868 8.868 0 014.523-1.245c1.585 0 3.149.43 4.523 1.246l28.637 16.999c2.36 1.4 3.952 3.827 4.4 6.548-.95-2.027-3.092-2.578-5.588-1.12L44.565 42.424c-3.378 1.975-5.869 4.19-5.871 8.264V84.07c-.002 2.439.983 4.019 2.496 4.477a8.82 8.82 0 01-1.505.146 8.868 8.868 0 01-4.523-1.246M73.846 18.52L45.209 1.523A10.806 10.806 0 0039.685 0c-1.908 0-3.816.507-5.525 1.522L5.523 18.52C2.106 20.55 0 24.3 0 28.358v33.997c0 4.057 2.106 7.808 5.524 9.837l28.637 16.997a10.814 10.814 0 005.524 1.52c1.908 0 3.814-.506 5.523-1.52l28.638-16.997c3.418-2.03 5.524-5.78 5.524-9.837V28.358c0-4.058-2.106-7.808-5.524-9.837"
                    fill="#3e474a" />
                <path
                    d="M66.34 65.642l-7.132 4.268c-.189.11-.328.234-.329.46v1.867c0 .228.153.323.342.212l7.241-4.401c.19-.11.218-.321.22-.548v-1.646c0-.227-.154-.322-.343-.212"
                    fill="#47b353" />
                <path
                    d="M51.154 49.935c.231-.117.421.027.424.329l.024 2.467c1.033-.411 1.93-.521 2.743-.333.176.047.254.287.182.572l-.543 2.186a.936.936 0 01-.247.436.58.58 0 01-.143.106.324.324 0 01-.214.035c-.37-.084-1.253-.277-2.64.426-1.457.737-1.966 2.002-1.956 2.941.012 1.121.587 1.461 2.573 1.495 2.646.044 3.79 1.2 3.817 3.865.027 2.617-1.37 5.427-3.507 7.149l.047 2.442c.003.294-.188.63-.419.748l-1.446.833c-.232.117-.422-.027-.425-.321l-.025-2.402c-1.239.515-2.494.639-3.296.317-.15-.06-.216-.282-.156-.536l.524-2.208a.916.916 0 01.26-.46.546.546 0 01.135-.098.288.288 0 01.233-.025c.864.29 1.97.155 3.032-.383 1.35-.683 2.253-2.06 2.24-3.428-.014-1.241-.686-1.757-2.32-1.77-2.08.007-4.019-.403-4.05-3.465-.027-2.521 1.284-5.144 3.36-6.803l-.027-2.465c-.003-.303.182-.636.42-.756z"
                    fill="#fefefe" />
            </g>
        </svg></g>
    <!--#endregion-->
    <g clip-path="url(#clip0)" id="limeylogo" transform="matrix(0.16919509,0,0,0.16919509,261.94821,137.40352)">
        <path d="m 1641,409 h 333.1 v 843.78 H 2355 V 1513 h -714 z" fill="url(#fill1)" fill-rule="evenodd"
            style="fill:url(#limey)" />
    </g>
    <circle id="spin" cx="590.266" cy="294.123" r="158" fill="none" stroke="url(#limey)" stroke-width="30"
        stroke-linecap="round" stroke-dasharray="992.743 992.743" />

    <rect width="560" height="60" id="upbg" rx="10" />
    <text id="up">
        Welcome to LimeyTeam's GitHub profile!
    </text>
</svg>