<svg width="1200" height="600" viewBox="0 0 317.5 158.75" xmlns="http://www.w3.org/2000/svg">
    <g fill="none" stroke="#aaa" stroke-linejoin="round" stroke-opacity=".477">
        <path d="M144.454 130.31L35.93 101.231-72.595 72.152 6.851-7.293 86.296-86.74l29.08 108.525z"
            transform="matrix(.07828 -.04638 .0452 .08033 39.574 22.083)" stroke-width="26.907" />
        <circle cx="1.271" cy="87.275" r="9.345" transform="rotate(-15)" stroke-width="2.284" />
        <path
            d="M54.23 49.732l-.082.06 6.354 8.687-8.686 6.354.06.082 8.687-6.354 6.354 8.687.083-.06-6.354-8.687 8.686-6.355-.06-.082-8.687 6.354z"
            stroke-width="2.26" />
        <path stroke-width="2.717" d="M141.043 10.42l18.251-.408.409 18.252-18.252.408z" />
        <path d="M144.454 130.31L35.93 101.231-72.595 72.152 6.851-7.293 86.296-86.74l29.08 108.525z"
            transform="matrix(.07828 -.04638 .0452 .08033 50.46 126.867)" stroke-width="26.907" />
        <circle cx="196.394" cy="183.231" r="9.345" transform="rotate(-15)" stroke-width="2.284" />
        <path
            d="M269.24 86.814l-.082.06 6.355 8.687-8.687 6.354.06.083 8.687-6.354 6.354 8.686.083-.06-6.354-8.687 8.686-6.354-.06-.083-8.687 6.355z"
            stroke-width="2.26" />
        <path stroke-width="2.717" d="M276.105 116.906l18.25-.409.41 18.252-18.252.408z" />
        <circle cx="115.969" cy="127.165" r="9.345" transform="rotate(-15)" stroke-width="2.284" />
        <path
            d="M178.746 68.103l-.083.06 6.355 8.687-8.687 6.354.06.083 8.687-6.354 6.355 8.686.082-.06-6.354-8.687 8.686-6.354-.06-.083-8.686 6.354z"
            stroke-width="2.26" />
        <path stroke-width="2.717" d="M218.27 30.153l18.251-.409.409 18.252-18.252.408z" />
        <path d="M144.454 130.31L35.93 101.231-72.595 72.152 6.851-7.293 86.296-86.74l29.08 108.525z"
            transform="matrix(.07828 -.04638 .0452 .08033 101.151 60.186)" stroke-width="26.907" />
        <path d="M144.454 130.31L35.93 101.231-72.595 72.152 6.851-7.293 86.296-86.74l29.08 108.525z"
            transform="matrix(.07828 -.04638 .0452 .08033 171.574 130.269)" stroke-width="26.907" />
        <circle cx="81.355" cy="153.816" r="9.345" transform="rotate(-15)" stroke-width="2.284" />
        <path
            d="M91.653 93.278l-.082.06 6.354 8.687-8.686 6.354.06.083 8.687-6.354 6.354 8.686.082-.06-6.354-8.687 8.687-6.354-.06-.083-8.687 6.355z"
            stroke-width="2.26" />
        <path stroke-width="2.717" d="M228.476 68.596l18.251-.409.41 18.252-18.252.408z" />
    </g>
</svg>