<svg width="79.37" height="90.71" xmlns="http://www.w3.org/2000/svg">
    <g fill="none" fill-rule="evenodd">
        <path
            d="M73.846 18.52L45.209 1.523a10.789 10.789 0 00-11.049 0L5.523 18.52C2.106 20.55 0 24.299 0 28.357v33.998c0 4.057 2.106 7.808 5.524 9.837l28.637 16.996a10.798 10.798 0 0011.047 0l28.637-16.996c3.418-2.03 5.525-5.78 5.525-9.837V28.357c0-4.058-2.107-7.807-5.524-9.836z"
            fill="#fefefe" />
        <path
            d="M35.162 87.448L6.525 70.452c-2.801-1.663-4.541-4.765-4.541-8.097V28.358c0-3.332 1.74-6.434 4.54-8.096l28.638-17a8.868 8.868 0 014.523-1.245c1.585 0 3.149.43 4.523 1.246l28.637 16.999c2.36 1.4 3.952 3.827 4.4 6.548-.95-2.027-3.092-2.578-5.588-1.12L44.565 42.424c-3.378 1.975-5.869 4.19-5.871 8.264V84.07c-.002 2.439.983 4.019 2.496 4.477a8.82 8.82 0 01-1.505.146 8.868 8.868 0 01-4.523-1.246M73.846 18.52L45.209 1.523A10.806 10.806 0 0039.685 0c-1.908 0-3.816.507-5.525 1.522L5.523 18.52C2.106 20.55 0 24.3 0 28.358v33.997c0 4.057 2.106 7.808 5.524 9.837l28.637 16.997a10.814 10.814 0 005.524 1.52c1.908 0 3.814-.506 5.523-1.52l28.638-16.997c3.418-2.03 5.524-5.78 5.524-9.837V28.358c0-4.058-2.106-7.808-5.524-9.837"
            fill="#3e474a" />
        <path
            d="M66.34 65.642l-7.132 4.268c-.189.11-.328.234-.329.46v1.867c0 .228.153.323.342.212l7.241-4.401c.19-.11.218-.321.22-.548v-1.646c0-.227-.154-.322-.343-.212"
            fill="#47b353" />
        <path
            d="M51.154 49.935c.231-.117.421.027.424.329l.024 2.467c1.033-.411 1.93-.521 2.743-.333.176.047.254.287.182.572l-.543 2.186a.936.936 0 01-.247.436.58.58 0 01-.143.106.324.324 0 01-.214.035c-.37-.084-1.253-.277-2.64.426-1.457.737-1.966 2.002-1.956 2.941.012 1.121.587 1.461 2.573 1.495 2.646.044 3.79 1.2 3.817 3.865.027 2.617-1.37 5.427-3.507 7.149l.047 2.442c.003.294-.188.63-.419.748l-1.446.833c-.232.117-.422-.027-.425-.321l-.025-2.402c-1.239.515-2.494.639-3.296.317-.15-.06-.216-.282-.156-.536l.524-2.208a.916.916 0 01.26-.46.546.546 0 01.135-.098.288.288 0 01.233-.025c.864.29 1.97.155 3.032-.383 1.35-.683 2.253-2.06 2.24-3.428-.014-1.241-.686-1.757-2.32-1.77-2.08.007-4.019-.403-4.05-3.465-.027-2.521 1.284-5.144 3.36-6.803l-.027-2.465c-.003-.303.182-.636.42-.756z"
            fill="#fefefe" />
    </g>
</svg>